<svg xmlns="http://www.w3.org/2000/svg" viewBox="0 0 64 64">
  <defs>
    <!-- Professional gradient system -->
    <linearGradient id="primaryGrad" x1="0%" y1="0%" x2="100%" y2="100%">
      <stop offset="0%" style="stop-color:#00F5A0;stop-opacity:1" />
      <stop offset="35%" style="stop-color:#00D9FF;stop-opacity:1" />
      <stop offset="70%" style="stop-color:#6CF0C2;stop-opacity:1" />
      <stop offset="100%" style="stop-color:#4AD2A5;stop-opacity:1" />
    </linearGradient>
    
    <!-- Secondary accent gradient -->
    <linearGradient id="accentGrad" x1="0%" y1="0%" x2="100%" y2="100%">
      <stop offset="0%" style="stop-color:#ffffff;stop-opacity:0.1" />
      <stop offset="50%" style="stop-color:#ffffff;stop-opacity:0.05" />
      <stop offset="100%" style="stop-color:#ffffff;stop-opacity:0.02" />
    </linearGradient>
    
    <!-- Dark sophisticated background -->
    <linearGradient id="bgGradient" x1="0%" y1="0%" x2="100%" y2="100%">
      <stop offset="0%" style="stop-color:#050505;stop-opacity:1" />
      <stop offset="50%" style="stop-color:#0A0A0A;stop-opacity:1" />
      <stop offset="100%" style="stop-color:#151515;stop-opacity:1" />
    </linearGradient>
    
    <!-- Professional glow filter -->
    <filter id="proGlow" x="-50%" y="-50%" width="200%" height="200%">
      <feGaussianBlur stdDeviation="4" result="coloredBlur"/>
      <feMerge> 
        <feMergeNode in="coloredBlur"/>
        <feMergeNode in="SourceGraphic"/>
      </feMerge>
    </filter>
    
    <!-- Subtle inner shadow -->
    <filter id="innerShadow">
      <feGaussianBlur stdDeviation="2" result="shadow"/>
      <feOffset dx="0" dy="2" result="shadowOffset"/>
      <feComposite in="shadowOffset" in2="SourceAlpha" operator="in"/>
      <feComposite in="SourceGraphic" in2="shadowOffset" operator="over"/>
    </filter>
    
    <!-- Glassmorphism effect -->
    <filter id="glass">
      <feGaussianBlur stdDeviation="1" result="blur"/>
      <feComposite in="blur" in2="SourceGraphic" operator="multiply" result="blended"/>
    </filter>
  </defs>
  
  <!-- Sophisticated dark background -->
  <rect width="64" height="64" rx="18" fill="url(#bgGradient)"/>
  
  <!-- Glassmorphism overlay -->
  <rect x="3" y="3" width="58" height="58" rx="15" fill="url(#accentGrad)" opacity="0.3"/>
  
  <!-- Modern geometric grid system -->
  <g opacity="0.08">
    <!-- Vertical grid lines -->
    <line x1="21" y1="8" x2="21" y2="56" stroke="#6CF0C2" stroke-width="0.5"/>
    <line x1="32" y1="8" x2="32" y2="56" stroke="#6CF0C2" stroke-width="0.5"/>
    <line x1="43" y1="8" x2="43" y2="56" stroke="#6CF0C2" stroke-width="0.5"/>
    
    <!-- Horizontal grid lines -->
    <line x1="8" y1="21" x2="56" y2="21" stroke="#6CF0C2" stroke-width="0.5"/>
    <line x1="8" y1="32" x2="56" y2="32" stroke="#6CF0C2" stroke-width="0.5"/>
    <line x1="8" y1="43" x2="56" y2="43" stroke="#6CF0C2" stroke-width="0.5"/>
  </g>
  
  <!-- Professional V character with geometric precision -->
  <g transform="translate(32,32)">
    <!-- Main V with geometric construction -->
    <path d="M-14,-20 
             L0,25 
             L14,-20
             M-14,-20 L-20,-28 L-14,-20
             M14,-20 L20,-28 L14,-20
             M0,25 L-4,32 L0,35 L4,32 L0,25" 
          fill="none" 
          stroke="url(#primaryGrad)" 
          stroke-width="3.5" 
          stroke-linecap="round" 
          stroke-linejoin="round"
          filter="url(#proGlow)"/>
    
    <!-- Geometric accent lines -->
    <path d="M-20,-28 L-30,-35" fill="none" stroke="url(#primaryGrad)" stroke-width="2" opacity="0.8"/>
    <path d="M20,-28 L30,-35" fill="none" stroke="url(#primaryGrad)" stroke-width="2" opacity="0.8"/>
    <path d="M-4,32 L-8,40" fill="none" stroke="url(#primaryGrad)" stroke-width="2" opacity="0.8"/>
    <path d="M4,32 L8,40" fill="none" stroke="url(#primaryGrad)" stroke-width="2" opacity="0.8"/>
  </g>
  
  <!-- Professional UI elements -->
  <!-- Corner accent squares -->
  <rect x="8" y="8" width="3" height="3" rx="0.5" fill="url(#primaryGrad)" opacity="0.7"/>
  <rect x="53" y="8" width="3" height="3" rx="0.5" fill="url(#primaryGrad)" opacity="0.7"/>
  <rect x="8" y="53" width="3" height="3" rx="0.5" fill="url(#primaryGrad)" opacity="0.7"/>
  <rect x="53" y="53" width="3" height="3" rx="0.5" fill="url(#primaryGrad)" opacity="0.7"/>
  
  <!-- Professional status indicators -->
  <circle cx="16" cy="48" r="2" fill="#00F5A0" opacity="0.9">
    <animate attributeName="opacity" values="0.9;0.4;0.9" dur="3s" repeatCount="indefinite"/>
  </circle>
  <circle cx="48" cy="16" r="1.5" fill="#00D9FF" opacity="0.8">
    <animate attributeName="opacity" values="0.8;0.3;0.8" dur="2.5s" repeatCount="indefinite"/>
  </circle>
  
  <!-- Modern UI framework lines -->
  <g opacity="0.15">
    <line x1="12" y1="24" x2="52" y2="24" stroke="#6CF0C2" stroke-width="1"/>
    <line x1="12" y1="40" x2="52" y2="40" stroke="#6CF0C2" stroke-width="1"/>
    
    <!-- Intersection points -->
    <circle cx="32" cy="24" r="1" fill="#6CF0C2" opacity="0.3"/>
    <circle cx="32" cy="40" r="1" fill="#6CF0C2" opacity="0.3"/>
  </g>
  
  <!-- Premium branding elements -->
  <!-- Micro-interaction dots -->
  <circle cx="25" cy="15" r="0.8" fill="#00F5A0" opacity="0.6"/>
  <circle cx="39" cy="15" r="0.6" fill="#00D9FF" opacity="0.7"/>
  <circle cx="25" cy="49" r="0.6" fill="#6CF0C2" opacity="0.5"/>
  <circle cx="39" cy="49" r="0.8" fill="#4AD2A5" opacity="0.4"/>
</svg>